<?xml version="1.0" encoding="UTF-8" standalone="no"?>
<!-- Created with Inkscape (http://www.inkscape.org/) -->

<svg
   xmlns:dc="http://purl.org/dc/elements/1.1/"
   xmlns:cc="http://creativecommons.org/ns#"
   xmlns:rdf="http://www.w3.org/1999/02/22-rdf-syntax-ns#"
   xmlns:svg="http://www.w3.org/2000/svg"
   xmlns="http://www.w3.org/2000/svg"
   xmlns:sodipodi="http://sodipodi.sourceforge.net/DTD/sodipodi-0.dtd"
   xmlns:inkscape="http://www.inkscape.org/namespaces/inkscape"
   width="373.51514mm"
   height="62.153114mm"
   viewBox="0 0 373.51514 62.153114"
   version="1.1"
   id="svg2727"
   inkscape:version="0.92.2 5c3e80d, 2017-08-06"
   sodipodi:docname="yEO_17.svg">
  <defs
     id="defs2721">
    <inkscape:path-effect
       effect="spiro"
       id="path-effect3800"
       is_visible="true" />
  </defs>
  <sodipodi:namedview
     id="base"
     pagecolor="#ffffff"
     bordercolor="#666666"
     borderopacity="1.0"
     inkscape:pageopacity="0.0"
     inkscape:pageshadow="2"
     inkscape:zoom="0.79396664"
     inkscape:cx="714.54605"
     inkscape:cy="227.18075"
     inkscape:document-units="mm"
     inkscape:current-layer="layer1"
     showgrid="false"
     inkscape:window-width="1994"
     inkscape:window-height="1123"
     inkscape:window-x="1334"
     inkscape:window-y="361"
     inkscape:window-maximized="0"
     showguides="false"
     inkscape:guide-bbox="true"
     fit-margin-top="0"
     fit-margin-left="0"
     fit-margin-right="0"
     fit-margin-bottom="0"
     inkscape:snap-nodes="false"
     inkscape:snap-global="false">
    <sodipodi:guide
       position="129.8357,37.770979"
       orientation="0,1"
       id="guide3775"
       inkscape:locked="false" />
  </sodipodi:namedview>
  <metadata
     id="metadata2724">
    <rdf:RDF>
      <cc:Work
         rdf:about="">
        <dc:format>image/svg+xml</dc:format>
        <dc:type
           rdf:resource="http://purl.org/dc/dcmitype/StillImage" />
        <dc:title></dc:title>
      </cc:Work>
    </rdf:RDF>
  </metadata>
  <g
     inkscape:label="Layer 1"
     inkscape:groupmode="layer"
     id="layer1"
     transform="translate(115.55474,-134.61005)">
    <g
       id="g3491"
       transform="translate(4.7625,78.845833)">
      <path
         style="fill:#dbe9a5;stroke-width:1"
         d="m -85.076812,116.32606 c -5.75803,-0.29417 -10.21244,-6.79126 -7.359835,-7.93068 3.558997,-1.42157 3.56855,-3.48494 6.563253,-1.83268 -3.053919,4.76441 0.45825,2.73167 -0.516381,3.64534 -7.222504,6.77071 11.820946,7.2618 18.79392,2.44728 6.629203,0.59467 -13.95982,4.80843 -17.480957,3.67074 z m 299.162522,1.47777 c -23.39369,-6.74136 -9.64076,-3.89446 -8.79371,-3.48058 8.8496,2.89303 13.12452,1.08383 16.17311,-1.66107 -0.37974,-2.20215 -0.88728,-3.58161 -1.88914,-4.6502 -1.47844,-1.57689 1.31878,-2.88637 5.161,1.08479 1.03902,4.07908 -5.5424,10.50058 -10.65126,8.70706 z m -110.28344,-1.04109 c -6.469603,-5.13951 -10.823449,-9.03892 -1.59717,-3.34866 4.98719,1.65248 5.19056,0.36731 10.58614,-0.84581 5.13631,-1.15482 9.65918,-0.6707 15.07292,-3.19351 -6.60871,3.05538 -15.87546,8.47241 -24.06189,7.38798 z M 20.146132,115.748 c -6.066499,-2.32559 -24.0297715,-8.26735 -8.122544,-3.5547 10.639754,1.96913 7.44994,0.82952 11.369976,1.18556 3.92255,0.35627 1.873135,1.17536 10.065839,-1.19736 -2.687252,5.02205 -8.489335,5.57979 -13.313271,3.56652 z m 209.445628,-8.55372 c 2.63145,-0.19997 6.18542,-0.42835 8.68138,-1.32516 3.78909,1.54222 11.96618,-0.72075 14.2147,-10.270916 0.25981,-6.897434 0.84679,-5.44107 0.5499,-1.74884 -0.34043,4.233648 -2.08784,11.300056 -7.09964,11.724066 -4.1609,2.56652 -14.64608,1.42173 -16.34634,1.62085 z"
         id="path3533"
         inkscape:connector-curvature="0"
         sodipodi:nodetypes="cscscccccsccccsccccsccccccscc" />
      <path
         style="fill:#f697d2;stroke-width:3.77952766"
         d="M 861.2832 9.5546875 C 860.79192 9.5216925 859.49025 9.6271284 857.16602 9.8828125 C 830.45283 16.75656 799.72443 30.772892 787.79297 53.996094 C 781.42373 72.530319 757.26909 90.398276 770.68164 110.98242 C 774.76574 109.56536 796.23012 103.1989 805.74023 110.43945 C 813.08 106.62797 822.3368 104.02717 829.92773 100.97656 C 824.97676 88.391087 828.37284 88.036891 816.0332 94.523438 C 797.93838 100.74205 799.70471 92.290956 799.48633 78.873047 C 795.36527 59.47627 815.89378 41.0296 824.55664 26.615234 C 828.41099 16.80377 864.72216 9.7856528 861.2832 9.5546875 z M 592.55078 37.724609 C 590.90666 37.7071 591.9397 40.93436 597.40234 49.828125 C 622.33106 70.971029 617.55106 97.676188 585.34375 87.34375 C 591.38801 99.395216 582.36291 99.964826 595.63477 106.51758 C 604.72697 111.00669 618.21985 112.79649 626.66211 112.10156 C 652.64349 112.52035 645.86633 83.8267 628.39844 60.939453 C 618.44203 58.996943 596.75242 37.769356 592.55078 37.724609 z M 223.49414 65.279297 C 219.88213 65.463967 217.46123 67.4695 218.38477 70.65625 C 219.68603 75.146416 223.37435 84.535129 226.68164 95.044922 C 231.29757 96.3509 236.33498 93.44525 238.0625 89.480469 C 239.06494 87.179802 241.37416 81.449374 240.7168 78.482422 C 239.61801 73.52313 234.57227 71.216239 233.07031 68.453125 C 229.83319 66.093115 226.30348 65.135665 223.49414 65.279297 z M 53.658203 68.185547 C 28.339564 72.94977 25.843526 89.471516 11.525391 102.83789 C 9.5600363 116.24668 7.3265747 118.72122 6.7246094 123.98633 C 11.483866 125.52909 15.059934 125.6058 16.884766 129.11523 C 28.998114 117.28907 51.463583 86.51861 53.658203 68.185547 z M 101.71875 113.96484 C 101.71875 113.96484 90.101874 120.22905 86.634766 121.30273 C 87.173152 130.15069 71.432945 140.25553 68.669922 142.81836 C 64.925922 145.44974 61.66196 148.2231 60.40625 151.10547 C 59.444549 153.31296 58.766015 153.17826 57.828125 155.66211 C 56.890235 158.14595 64.350702 156.06024 59.931641 164.04102 C 59.216781 164.26423 54.692062 155.27357 58.359375 165.4082 C 66.371709 179.54212 82.168627 179.44804 87.138672 189.54297 C 89.802056 191.18608 92.296025 192.63802 94.433594 193.79297 C 90.701881 184.42953 90.709083 171.53508 93.203125 170.14648 C 100.99559 148.30484 72.43144 155.12389 69.035156 146.96484 C 95.520203 149.53978 101.71875 113.96484 101.71875 113.96484 z M 27.984375 180.375 C 20.814948 180.27881 16.405711 182.19472 30.384766 187.21484 C 33.201836 188.86706 33.219787 188.13362 36.107422 188.41406 C 50.982402 183.94945 37.20221 180.49868 27.984375 180.375 z "
         transform="matrix(0.26458333,0,0,0.26458333,-120.31724,55.764217)"
         id="path3905" />
      <path
         style="fill:#f697d2;stroke-width:1"
         d="m 26.598827,76.959329 c 0.1802,-1.257958 6.915224,2.061874 1.285803,0.577997 -0.478652,-0.126169 -0.998812,-0.485673 -1.285803,-0.577997 z"
         id="path3893" />
      <path
         style="fill:#f697d2;stroke-width:1"
         d="m 108.64926,76.299707 c 3.22769,-1.882653 10.83547,-2.420345 2.98436,-0.205675 -0.16829,0.357829 -1.84722,0.349284 -2.98436,0.205675 z"
         id="path3891" />
      <path
         style="fill:#c93011;fill-opacity:1;stroke-width:3.77952766"
         d="m 590.38477,26.429688 c 19.73959,29.75769 44.99289,10.401318 61.22265,52.511718 1.04271,10.779508 18.71912,39.528784 28.10938,44.708984 5.88317,3.2455 18.33621,-5.20282 1.86914,-23.808593 -20.67968,-33.9814 -54.64433,-58.872278 -91.20117,-73.412109 z m 738.81643,7.796874 c -5.5724,0.19992 11.0116,21.064567 25.8086,29.748047 12.9277,7.586518 42.581,20.068894 9.3867,-5.003906 -9.4156,-9.129271 -19.9334,-17.061358 -31.3809,-23.46875 -1.7702,-0.910729 -3.0184,-1.30395 -3.8144,-1.275391 z m -1216.7305,5.53711 c -7.27562,0.13588 -26.774687,3.886163 -31.546815,9.443484 -13.752231,16.014987 1.761352,0.346846 20.870915,9.751807 1.01276,-0.158324 1.26184,1.845967 2.90359,0.660178 11.15441,-8.0565 17.02416,-5.482369 16.82026,-10.272533 -0.16364,-3.844273 2.16602,-6.181308 -9.04795,-9.582936 z m 506.91407,10.351562 c 2.8427,4.114473 8.85479,7.008152 0,0 z m 150.12109,4.644532 c -12.14218,5.028578 -24.50836,20.846529 -33.7168,34.638672 -11.22961,16.819392 -20.12731,29.643492 8.87696,5.246093 14.29765,-3.346749 3.06314,-28.024464 24.83984,-39.884765 z m 372.35934,10.236328 c -3.1818,-0.0073 -6.8199,0.454332 -11.0175,1.480468 -22.3876,5.472722 -17.5601,49.068848 17.4335,55.175778 3.0325,1.83142 12.0622,8.6741 15.4219,6.85547 11.6656,-6.31455 9.1194,-32.458021 2.4121,-44.933591 -5.2277,-9.723778 -10.4622,-18.546644 -24.25,-18.578125 z m -131.789,2.810547 c 1.1427,41.577569 -32.20921,73.233099 -68.13479,87.796879 -6.13263,19.77956 0.34608,28.01696 5.83203,31.10937 20.35978,-0.98581 71.37726,-8.1736 64.87106,-19.88477 14.688,4.5487 42.5176,-33.31837 33.8516,-40.51953 -5.0538,-7.00475 -29.9812,-52.60439 -36.4199,-58.501949 z m -745.8887,0.08398 c 0,0 -19.72793,6.393532 -22.74023,13.416016 -7.56207,17.629183 11.04169,44.962203 36.08789,34.042973 -0.56194,-22.578426 -9.88299,-30.19707 -13.34766,-47.458989 z m 134.74219,4.724609 c -12.69977,9.90728 -56.77641,62.52483 -23.10742,85.10938 23.53294,18.72441 90.30908,44.32348 91.69335,29.9668 2.10473,-12.3097 2.96142,-26.88687 4.90235,-22.21094 2.22035,5.34909 -5.10972,-20.19207 -5.28125,-12.02539 -0.23912,10.86199 -11.9089,-1.79368 -26.04883,-10.77149 -12.79838,-8.12601 -27.7035,-13.96364 -30.63086,-29.97265 -3.50234,-3.60119 -2.327,-8.09893 -2.17383,-13.52735 -5.58235,-11.210593 -8.26131,-19.384755 -9.35351,-26.56836 z m 141.86914,0.658204 c -2.13318,-0.05959 -2.45693,0.497163 1.78906,1.804687 l 5.52344,3.857422 5.64648,-0.859375 c -0.82274,-2.893058 -9.40368,-4.703423 -12.95898,-4.802734 z M 27.285156,81.369141 C 17.045632,86.196971 11.410723,98.17035 12.468131,100.24628 13.392773,102.2491 30.163951,80.562801 27.285156,81.369141 Z m 38.924052,35.147909 c -9.358938,3.5988 -19.996615,29.19749 -35.978346,28.13655 -2.269672,13.40452 -7.366732,21.97992 -5.191997,34.69161 4.858732,0.46368 13.625637,2.32249 22.9952,4.32368 26.415134,5.64185 57.620295,12.41535 19.546013,-7.75092 -11.069853,-7.87524 -12.574518,-14.86187 -9.725113,-21.20853 -1.302809,1.52461 -1.706246,-1.58824 -1.422007,-3.83859 0.301795,-2.38935 3.854831,-4.4756 4.269995,-1.26157 6.800291,-7.60464 25.512363,-19.88666 24.824391,-27.14053 -9.57221,-1.40174 -14.038072,-4.06526 -19.318136,-5.9517 z M 1344.3711,128.23438 c -6.3881,0.035 -11.5459,1.17525 -10.6309,3.50781 0.6252,4.04346 14.4148,8.14473 20.2637,15.54492 4.5296,5.7309 0.806,12.67521 -4.7656,17.70508 8.5301,6.88551 1.9426,12.63502 -10.3399,15.9375 -12.0709,7.02259 -20.577,12.97174 -15.0742,12.84765 16.6013,-0.37417 81.4886,-8.43731 48.2344,-42.0039 -13.434,-3.31653 -10.8923,-15.22701 -7.2305,-18.38282 -1.9958,-3.41993 -12.2438,-5.20124 -20.457,-5.15624 z m -166.0215,16.69335 c -30.9936,20.10674 37.0104,51.94755 47.7852,72.23829 26.0679,20.97131 95.0298,5.72901 48.6601,-26.28321 -26.7414,-20.86144 -61.5849,-28.09444 -89.2832,-45.18945 l -5.789,-0.52148 z M 231.20898,153.875 c -36.1563,7.83258 -70.02674,25.18681 -98.51757,48.85742 -39.018391,30.79582 47.8333,29.12466 66.125,11.84375 -4.28153,-12.23687 38.13459,-41.07235 46.02024,-45.426 3.79231,-3.76872 4.09375,-7.11737 2.46608,-9.20876 -6.3017,2.55719 -8.64743,-6.19213 -16.09375,-6.06641 z m -66.83203,43.12109 c 26.09994,8.42193 -18.4144,14.6442 0,0 z"
         transform="matrix(0.26458333,0,0,0.26458333,-120.31724,55.764217)"
         id="path3889"
         inkscape:connector-curvature="0"
         sodipodi:nodetypes="cccccccccccscssccccsccsccccscccccccscccccscscccscccsccccccsccscccccccccccccccccccccccccc" />
      <path
         style="fill:#f697d2;stroke-width:1"
         d="m 118.10258,73.783778 c 13.03675,-1.62359 -8.2658,2.851337 0,0 z"
         id="path3887" />
      <path
         style="fill:#f697d2;stroke-width:1"
         d="m 17.141453,74.251991 c -1.942604,-0.813556 2.374526,-0.609034 3.722127,0.219546 0.900977,0.553971 -0.94654,0.173784 -3.722127,-0.219546 z"
         id="path3885" />
      <path
         style="fill:#f697d2;stroke-width:1"
         d="m 11.959837,74.019748 c 1.078705,-1.099671 3.786693,-0.762088 4.210895,-0.266643 0.469437,0.548278 -1.521077,1.280524 -4.210895,0.266643 z"
         id="path3531" />
      <path
         style="fill:#d258e5;stroke-width:1"
         d="m 108.33861,58.308067 c -9.255399,2.516545 -9.317084,2.580555 -13.517009,9.128643 -4.277346,4.656521 -6.092745,17.36771 3.131119,11.993896 10.24245,-3.28748 14.36821,-5.057884 22.83525,-6.211308 4.75246,0.241538 16.09346,-6.854645 9.72964,-10.41332 -6.63627,2.405877 -16.37983,1.134549 -20.34636,9.645994 -14.440301,5.103142 -9.04142,-8.469285 -0.62773,-13.670344 0.84063,-0.519646 -1.04253,-0.437596 -1.20491,-0.473561 z m -84.558435,0.421792 c 3.123927,1.598542 10.889794,16.712252 0.145928,13.752438 -16.7455948,-10.616575 -8.661868,-3.606843 -23.74259812,-9.36673 0.58432293,4.415995 3.52164362,4.795829 10.56281312,9.536225 1.30475,0.878409 3.268641,-0.06607 5.168473,0.671379 8.187038,0.111342 18.042347,7.985259 24.737506,5.22552 4.134352,-6.135004 -5.432067,-9.177981 -4.461248,-13.461578 -4.517884,-0.06497 -4.780348,-2.734928 -2.932602,-3.698135 -1.474438,-0.357383 -7.956656,-2.518408 -9.478272,-2.659119 z m 190.812775,6.010763 c 1.235,3.107753 3.9178,8.186742 5.20406,10.731501 0.74049,1.46501 1.43307,-2.196146 3.64649,-3.932322 -0.80196,-1.854397 -0.35255,-2.882786 -0.78184,-3.355247 -1.02448,-1.127497 -5.43784,-1.777678 -8.06871,-3.443932 z M -82.146409,64.590848 c -0.670484,-0.285021 -3.425714,1.651232 -3.734925,2.13027 -0.20306,0.314584 1.562842,0.464767 2.085044,0.133671 0.799887,-0.507158 3.14024,-2.601157 1.649881,-2.263941 z M 196.9477,72.330954 c -4.02409,0.986108 -6.61619,6.351375 -6.83339,10.014872 -0.36241,6.112912 -0.79903,6.453606 -2.74592,8.098569 -8.13292,-5.156743 -1.23049,8.857011 4.98163,2.775214 0.62798,-7.087373 9.44359,-10.859045 14.51127,-10.554472 1.01223,0.06084 1.90446,-1.785093 2.68394,-2.116612 0.85708,-7.249689 -8.59774,-5.143957 -12.59753,-8.217571 z M 22.5797,90.186 c -95.264627,18.48755 -47.632313,9.243777 0,0 z m -91.605228,-7.468234 c 4.088752,1.756121 6.410011,2.347121 7.47656,1.403058 2.52968,-2.239163 -1.505332,-10.151108 -2.200531,-10.297466 0,0 -4.041758,1.040326 -11.074622,4.215701 -1.249769,2.185783 -1.450286,6.226618 5.798593,4.678707 z m 90.531745,-8.649452 c 2.070498,0.449564 2.070498,0.449564 0,0 z m 220.845433,2.106332 c -0.37474,2.3799 1.20727,5.124441 2.93719,6.417925 2.42059,1.809905 5.37385,0.997068 1.7578,-3.975151 -0.58743,-0.661729 -1.7572,-1.291242 -2.59293,-1.707737 -0.70982,-0.353748 -1.49256,-0.32786 -2.10206,-0.735037 z m -22.05453,4.452959 c -4.98772,4.676419 4.32227,17.7456 -5.04317,13.447669 -6.04268,1.226977 9.88375,16.386086 10.52526,14.557766 5.34585,-2.98626 0.8711,-13.963273 10.796,-9.446907 4.53758,-3.915657 -0.40214,-5.310738 -3.87762,-7.92357 -0.44545,1.026711 -3.10514,-2.702243 -2.68094,-6.173862 -1.69158,1.763392 -7.35715,-1.655095 -8.77077,-5.146791 l -0.94875,0.685668 z m -309.466973,1.61179 c -6.852859,2.820781 -2.893642,12.233613 -12.798187,12.598714 1.53308,1.50531 9.419796,0.520327 5.990405,6.933381 -0.513641,13.11094 10.838314,2.56068 13.958739,-3.766178 4.748268,-8.029043 -11.548539,1.295847 -3.337756,-7.405703 2.043417,-2.853833 -4.703278,-4.199618 -3.813201,-8.360214 z m 330.271863,8.70908 c -2.37252,2.554597 -0.11047,4.75007 1.41324,4.526507 1.77665,-0.260674 2.82483,-3.27005 -1.41324,-4.526507 z m -328.463164,1.901156 c -21.970726,16.711799 -10.985362,8.355899 0,0 z m 35.70552,2.871883 c -0.942118,1.083496 -2.064213,1.808684 -2.524837,2.289348 -0.690337,0.720369 -0.217676,1.608621 0.404435,0.889931 0.478503,-0.552788 2.1544,-1.112831 3.334461,-1.050884 -0.926984,-1.063262 0.840434,-5.900067 -1.214059,-2.128395 z m 142.274909,7.979496 c -140.624343,9.47755 -70.312172,4.73877 0,0 z m 127.840385,1.08562 c -0.18806,0.66361 0.2912,1.36581 0.87516,1.62189 0.38582,0.1692 0.91694,0.0441 0.97567,-0.0598 0.0896,-0.15843 -0.58964,-1.17245 -1.85083,-1.56213 z"
         id="path3529"
         inkscape:connector-curvature="0"
         sodipodi:nodetypes="ccccccsccccsccccccscsccssccsccscccccsccccccscscccccccccccccccccsccccsscccccsscc" />
      <path
         style="fill:#f9f805;stroke-width:3.77952766"
         d="M 80.537109 31.898438 C 64.746613 32.037739 34.691868 66.869695 27.052734 79.865234 L 27.082031 80.595703 L 28.046875 80.480469 C 39.570125 69.444573 50.913809 60.651598 73.837891 56.503906 C 74.759302 53.575249 79.15067 50.52988 85.035156 45.380859 C 83.445445 42.645551 83.29779 34.635844 82.757812 32.136719 C 82.054596 31.969029 81.313691 31.891587 80.537109 31.898438 z M 447.07031 52.96875 C 434.27843 52.989712 422.43505 56.929054 419.56641 63.855469 C 415.35504 93.676795 441.98598 128.29787 461.95898 135.1582 C 465.0015 131.42448 465.5601 121.36123 468.88867 114.80469 C 468.32815 108.64139 471.02284 102.81764 475.875 97.712891 C 476.48152 97.074797 477.12117 96.446924 477.79297 95.832031 C 493.24433 81.689493 525.39567 73.880303 548.16211 81.408203 C 536.55523 65.995002 488.16045 75.854354 480.25977 65.587891 C 473.60182 56.844728 459.8622 52.947788 447.07031 52.96875 z M 973.72656 56.263672 C 959.75869 56.35406 936.82796 78.957602 919.8457 68.632812 C 840.51852 79.012397 903.44399 80.516878 917.79297 84.390625 C 933.34469 87.268131 956.18376 116.16272 942.18945 119.2207 C 941.96732 119.26924 941.73501 119.31234 941.49414 119.34766 C 938.42467 119.79765 946.80868 125.41992 945.00195 127.51562 C 960.70279 129.70449 1007.2308 82.290308 980.46875 58.880859 C 978.5915 57.001332 976.31321 56.246933 973.72656 56.263672 z M 276.80469 64.953125 C 273.62047 64.935734 269.68687 65.904368 264.1875 67.890625 C 267.67257 85.408142 277.32498 91.659187 277.53516 115.34961 C 302.57783 115.2304 303.35495 81.18753 290.25586 73.115234 C 285.33674 67.750724 282.11172 64.98211 276.80469 64.953125 z M 650.82031 89.789062 C 648.84664 89.986303 647.03807 92.582474 645.38477 98.787109 C 644.56929 109.07367 639.07223 112.229 632.73047 113.04688 C 632.27749 113.10529 631.81958 113.15119 631.35938 113.1875 C 623.53587 113.80477 614.87229 111.48114 612.23438 114.79492 C 626.08232 131.13842 649.23416 139.30508 634.78516 164.23438 C 615.43759 169.27816 617.51326 174.62797 627.62305 175.36328 C 635.5494 175.93977 653.22149 182.03145 664.11328 185.0293 C 697.92049 185.66433 704.38081 144.00909 691.79688 118.4375 C 673.6611 143.5573 660.32984 88.838724 650.82031 89.789062 z M 752.25391 92.511719 C 744.58432 95.751632 731.156 106.21934 723.51953 110.99414 C 706.87438 137.73452 716.11182 190.88219 753.38477 186.53906 C 767.25986 191.62117 773.99427 174.61536 787.82227 172.14453 C 786.92703 168.94682 782.72279 163.02404 780.01953 162.93359 C 766.12149 162.46852 776.62463 131.67956 792.80273 119.34766 C 822.89025 102.39317 781.6788 110.01108 769.02539 111.80859 C 763.64116 88.060896 762.23 97.189062 752.25391 92.511719 z M 9.4980469 104.93555 C 8.7760056 105.0072 7.3600051 107.15874 4.9355469 112.94336 C 5.7974859 130.94761 12.076766 104.67965 9.4980469 104.93555 z M 47.71875 184.2168 C 44.977551 184.25563 42.056468 185.13781 41.460938 187.07227 C 39.167936 191.98943 55.729463 189.35284 52.607422 185.55664 C 51.874571 184.66553 49.850793 184.18659 47.71875 184.2168 z M 164.50391 198.22461 C 163.21427 198.288 162.08158 198.71949 161.42773 199.68359 C 157.75869 206.58845 168.97168 205.93369 171.72461 203.12891 C 173.66159 201.15545 168.37283 198.03443 164.50391 198.22461 z "
         transform="matrix(0.26458333,0,0,0.26458333,-120.31724,55.764217)"
         id="path3527" />
      <path
         style="fill:#9d9ea1;stroke-width:1"
         d="m 2.98173,88.496405 c 0.5985155,2.109357 -1.8903181,3.444406 0.4649395,5.868561 0.9495015,4.622919 3.1342814,8.883044 7.0337475,11.584804 4.103464,3.70342 9.378387,5.58667 14.462851,7.47317 3.834098,0.94031 10.848948,-1.53253 10.59539,-5.5134 -0.258544,-1.58371 1.901828,-5.40455 6.626375,-6.19736 1.640465,-0.27529 2.314019,-2.199255 2.989099,-2.20466 2.365452,0.346633 3.094879,-1.409097 3.385511,-3.489397 1.675713,-2.709093 -7.81679,-11.477842 -11.53205,-11.868245 -1.619106,-2.253748 -8.72322,-1.362908 -12.827394,-2.66804 -4.064592,1.051658 -9.040331,0.501464 -12.290467,2.173256 -2.7920239,1.045501 -8.2321781,1.558245 -8.908002,4.841311 z m 104.02469,-7.154608 c -5.83067,1.349676 -15.448935,1.360447 -19.253649,8.431535 -2.282121,2.073572 -3.446164,5.121537 -2.91609,8.287353 3.432469,1.281184 4.496023,4.895685 8.202084,5.633245 3.76461,2.38868 3.682952,7.59966 8.824505,8.95266 4.32812,2.88959 8.68369,0.55012 12.46129,-1.87616 4.10702,-2.58929 8.99779,-4.44556 12.09939,-8.35069 3.04398,-2.907275 0.55045,-5.971076 2.82586,-9.245438 -0.69695,-3.415247 -0.003,-7.797339 -4.34571,-8.539038 -4.21904,-1.437825 -8.40435,-1.445485 -12.57198,-2.846419 -1.29461,0.264488 -3.35502,-0.229438 -5.3257,-0.447048 z"
         id="path3523"
         inkscape:connector-curvature="0"
         sodipodi:nodetypes="cccccsccccccccccccccccc" />
      <path
         style="fill:#e29222;stroke-width:1"
         d="m 200.19509,112.65219 c -7.01617,0.82949 -16.25038,-7.03597 -14.29336,-18.389134 0.15155,-0.879207 2.41097,1.508354 3.31069,0.873834 -2.03139,7.82351 13.28783,13.93236 13.84302,17.78695 0.0737,0.51199 -2.51267,-0.75704 -2.86035,-0.27165 z m -265.553369,-0.16448 c 1.613981,-0.73559 5.869807,-3.51318 8.544266,-6.43568 2.27378,-2.48466 3.33055,-5.20722 1.436853,-5.45063 0.359957,-0.32057 0.493917,-0.826898 0.829089,-1.090258 2.361299,-1.855384 4.325599,-2.035452 5.530054,-0.374481 0.372951,8.108249 -12.553713,12.975929 -16.340262,13.351049 z m 303.842729,-6.60344 c 5.79426,-1.20551 9.2633,-4.90058 4.4178,-10.155046 6.10044,-5.026642 -11.79094,-8.30967 -10.60974,-4.480556 -5.20318,-4.611283 2.24168,-14.476007 -8.15278,-19.224232 -3.88336,-4.217374 3.22297,-9.629986 0.0661,-11.284314 2.35021,0.753957 4.75801,1.664506 5.95158,3.544583 2.43552,3.836348 6.40409,8.992436 13.39693,10.888559 2.92775,2.142169 2.62419,2.50325 1.8286,2.054802 -2.40963,-1.358219 -4.80688,-2.406958 -2.37126,2.555548 1.97181,4.960898 8.96487,5.461717 4.25591,-1.119291 8.64901,8.350468 7.12163,27.711777 -7.75039,27.511057 l -1.03293,-0.2911 z m -9.44883,-2.54419 c 0.52234,-3.580108 1.97572,-5.395966 4.68825,-5.058999 3.24653,0.403305 6.33897,3.503599 0.18435,5.266969 -1.34239,0.63456 -7.33159,5.49214 -4.8726,-0.20797 z M -112.2728,93.90685 c 0,0 -1.45716,-2.237438 -3.09965,-3.97205 2.86968,-3.389932 7.34902,-8.999335 8.50252,-12.462991 0.61616,-1.850168 1.50939,-1.811326 1.77092,-0.502592 3.44554,2.191558 8.436771,-1.480808 11.972553,-4.788571 2.404483,-2.24942 5.359333,-3.084829 5.604957,-1.522111 0.130748,0.831846 -1.043506,2.889589 -2.288631,5.626779 -1.466295,3.742487 -1.018006,5.561987 -2.245718,7.528944 -2.168238,3.473804 -6.271802,5.211662 -10.579091,2.552975 -2.72978,1.281274 -5.88554,7.779126 -9.63786,7.539617 z m 65.92268,-21.175507 c -0.591018,-1.313347 -1.153302,-1.727014 -2.393639,-1.824746 -3.104615,-0.244627 -7.954927,-1.74047 -10.114375,2.255059 -1.962075,-0.555067 -3.49744,0.173869 -3.971688,-0.0065 -0.513817,-0.19546 0.784246,-1.560503 1.479727,-3.547223 3.010459,-5.087116 10.346751,-2.286813 13.397524,-0.293667 2.336375,1.526413 4.687374,4.849487 3.939055,4.891894 z m 145.696238,9.63853 c -0.407165,-0.893412 -1.045373,-2.490633 -0.404767,-2.863354 2.537339,-1.476284 5.230559,-2.018995 8.086169,-2.897152 1.5103,-0.464449 -1.3776,0.932964 1.99784,4.862063 -2.49846,-1.331587 -7.40747,0.876987 -9.679242,0.898443 z M 29.141965,82.020467 c -3.009446,0.0581 -1.452308,-1.798467 -1.615268,-4.064463 4.69455,0.366327 8.241195,-0.256217 7.48437,4.717304 -1.677184,-0.371698 -4.078436,-0.06511 -5.869102,-0.652841 z M 189.53513,81.261565 C 188.74788,71.249921 174.73109,68.75194 175.02175,80.02904 c -1.83202,-11.071699 16.14406,-15.93413 21.0331,-7.647835 -4.44932,1.585242 -4.73954,6.720383 -6.51972,8.88036 z M 44.224676,71.134066 c -3.279488,-2.347774 -6.256456,-4.532151 -5.574992,-4.703293 0.807752,-0.202858 4.087132,1.659939 4.353517,1.756375 0.387825,0.954687 0.135315,0.99461 1.221475,2.946918 z m -134.774635,-4.96459 c -9.558021,0.856829 -1.799517,-6.664525 1.306731,-5.56897 -1.759481,2.390769 -0.0427,4.423359 1.963529,6.17799 0.222694,0.194767 -0.320371,0.332097 -0.806354,0.276609 -0.548459,1.14e-4 -1.056504,-0.269695 -2.463906,-0.885629 z"
         id="path3519"
         inkscape:connector-curvature="0"
         sodipodi:nodetypes="cscsccscscccccccscsccccccsccccscsscscccscscscccsscccccccccccsccccscc" />
      <path
         style="fill:#29caa2;stroke-width:1"
         d="m -78.454083,65.704008 c -1.986168,0.539411 -1.807674,-0.270633 -3.961936,0.21722 -1.192398,1.184958 -3.201542,1.860974 -3.504515,3.951641 -0.06644,1.383491 -0.309263,2.292075 -0.792001,5.057955 -0.274547,1.618325 -0.570769,3.149465 -1.166109,4.798364 -0.525933,0.988314 -0.870452,1.903698 -1.032682,3.010469 -0.02304,1.166061 -0.224496,1.530724 1.892849,3.803626 1.650817,1.399174 3.298226,3.246019 1.328051,4.390808 -0.690382,1.386396 -1.990773,1.968116 -1.925935,3.331485 2.380812,0.665131 2.46466,0.13725 4.811141,0.127916 2.031251,0.01894 2.007755,1.630685 1.199551,2.917854 -3.009129,5.707464 -3.072256,4.693204 -4.856795,6.882424 -0.807543,0.65725 -1.953229,1.52014 -0.174716,1.78085 0.933194,0.88419 2.40894,-0.90743 3.372708,-1.58271 2.893757,-2.18475 12.845564,-7.882783 18.946815,-12.157355 3.296463,-1.842604 2.898001,-7.190259 3.049184,-7.802913 0,0 -2.410195,0.584296 -3.972937,-0.263964 -1.516915,-0.606388 -2.315581,-0.812959 -3.776788,-1.287698 -1.692333,0.164738 -4.993119,0.773776 -6.119196,-0.819397 -0.550203,-1.646957 -0.646736,-2.776991 0.05092,-4.279282 -0.325347,-1.589802 0.9013,-3.597782 1.018943,-5.053377 -0.483924,-1.374138 -0.402603,-1.619518 -1.10085,-3.44779 -0.04072,-1.044055 -0.801753,-3.969617 -3.285704,-3.576126 z m 6.455895,19.665456 c 1.855475,0.36267 -2.815307,2.775779 -2.141093,0.604314 0.347604,-0.768776 1.465,-0.415705 2.141093,-0.604314 z"
         id="path3517"
         inkscape:connector-curvature="0"
         sodipodi:nodetypes="ccccccccccccccccccccccccccc" />
      <path
         style="fill:#2685db;fill-opacity:1;stroke-width:1"
         d="m -67.507545,55.766801 c -5.508411,1.149451 -18.977713,-0.922065 -12.568603,5.95254 -0.496449,2.746185 -3.528849,4.205206 0.79904,3.837978 4.508045,-1.195959 3.912778,4.293704 5.437646,7.268892 1.247731,-2.452767 5.390736,-6.048082 8.877002,-7.805058 2.408538,-1.213831 7.097987,-6.209664 6.414713,-7.103661 -2.30999,-0.589424 -6.576471,-2.126917 -8.959798,-2.150691 z M 200.6978,55.890307 c -9.18959,-3.728366 -14.12079,7.821051 -4.01373,8.243942 5.12352,3.001655 19.82121,15.238723 9.89087,18.747174 -4.75717,-0.681299 -14.49245,6.007078 -13.6865,10.017719 1.02313,2.912405 17.34232,7.563018 25.59783,14.248178 0.22869,0.0718 1.00935,-0.23109 0.70091,-0.56246 -1.00959,-1.08466 -1.80496,-3.64384 1.46493,-0.18631 0.11361,0.12013 0.4281,-0.66459 0.5846,-0.56333 -6.76563,-5.15767 -10.94232,-14.620639 -3.29532,-10.956058 1.25027,-0.01427 1.4855,-0.712779 1.46448,-1.265709 -0.16926,-4.452231 -2.84182,-9.556658 1.01368,-13.834221 0.3855,-7.68969 -9.94143,-14.282167 -5.48389,-21.590873 -3.3519,-1.895134 -9.77887,-2.139677 -14.23786,-2.298052 z m -79.78532,0.831991 c -9.52465,-2.036773 -15.42452,4.732917 -19.00038,10.815865 -1.58842,6.739634 2.4676,6.759867 8.15638,4.692948 2.95723,-4.159887 2.14119,-2.865127 3.25381,-4.161207 2.95904,-3.013382 9.39097,-3.557009 13.72452,-4.738264 3.68644,-1.004864 4.42565,-0.698954 4.88882,-0.406296 -2.69647,-2.536587 -0.23972,-8.253339 -11.02315,-6.203046 z M 12.251412,57.080416 C 0.47944102,54.811348 -1.7306131,64.024272 9.0335204,65.50109 16.685413,64.764342 22.769814,74.79489 28.18222,72.25365 30.228809,66.370171 26.133843,58.288587 19.572787,57.699996 17.157266,57.279086 14.704348,57.06006 12.251412,57.080416 Z"
         id="path3568"
         inkscape:connector-curvature="0"
         sodipodi:nodetypes="ccccscccccccssccscccccccsccccccc" />
      <path
         style="fill:#5083b1;stroke-width:1"
         d="m -74.16307,86.642332 c -0.20828,-0.337005 0.112602,-1.07837 0.476573,-1.101068 0.16633,-0.01037 0.748906,-0.07324 1.294609,-0.139706 1.188913,-0.144806 1.269079,0.18995 0.22374,0.934299 -0.804225,0.572657 -1.741427,0.716638 -1.994922,0.306475 z"
         id="path3562"
         inkscape:connector-curvature="0" />
      <path
         style="fill:#5d82a4;fill-opacity:1;stroke-width:1"
         d="m -0.19223625,63.323265 c -4.57688685,1.403588 -8.75670625,0.558337 -11.82356775,5.688541 -4.293567,3.535596 -2.250215,9.033778 -0.177037,12.983231 -0.246367,1.453327 -0.232325,2.942292 0.560362,3.277784 1.412432,0.59779 3.7139676,-0.405119 4.639125,-1.760517 0.3296408,-0.482939 -0.6275056,-1.281816 -1.1849583,-2.006688 -1.0597938,-3.585199 -3.5455057,-9.957725 1.5880288,-11.485438 4.8171137,-1.384485 10.0004996,-0.529214 14.045603,3.32163 2.4671033,1.492745 6.4411505,1.148702 2.017868,-0.972026 C 7.2400516,69.29467 -1.9793924,67.647924 -0.19223625,63.323265 Z M 132.37423,67.13515 c -3.99499,4.282481 -6.70685,4.007702 -8.08612,5.99022 -0.80799,1.161394 0.3557,1.506218 2.60699,0.793113 4.17341,-0.148185 8.21934,-4.915279 12.38462,-3.108381 5.60052,5.363415 -0.29553,12.159962 -0.29553,12.159962 l 4.88711,1.390396 c 0,0 5.46017,-10.219291 1.43536,-13.399069 -4.13888,-8.838192 -9.41467,-5.181818 -12.93243,-3.826241 z M -0.56430656,65.551035 c -0.17278773,0.07891 -0.0295733,-0.06537 0,0 z M 110.94,76.656817 c -6.44305,-1.323972 -2.82553,6.200937 1.53329,4.976016 4.84387,2.18422 11.07443,0.934498 15.46464,4.687478 4.76766,1.746639 -0.76653,-5.90464 -2.97346,-6.454503 -1.31502,-1.612448 -4.3177,-2.262584 -14.02447,-3.208991 z M 14.063365,77.372609 C 9.5118002,78.137437 2.2985236,83.320267 4.0064737,85.98493 5.8454889,85.358536 11.585916,83.157708 15.756661,82.25906 c 1.9812,0.163333 6.16028,-0.06405 7.971887,-1.120323 1.11659,-0.651037 0.39318,-2.87081 0.185482,-3.623543 -2.964356,-1.753234 -6.787845,-0.337745 -9.850665,-0.142585 z"
         id="path3560"
         inkscape:connector-curvature="0"
         sodipodi:nodetypes="cccssccccccsccccccccccccccccscc" />
      <path
         style="fill:#5083b1;stroke-width:1"
         d="m -9.2226177,68.838457 c 0,-0.427413 -0.07824,-0.503843 -0.2944469,-0.287637 -0.1619435,0.161945 -0.2144501,0.423883 -0.1166759,0.582083 0.2736823,0.442828 0.4111228,0.344393 0.4111228,-0.294446 z"
         id="path3554"
         inkscape:connector-curvature="0" />
      <path
         style="fill:#1847af;fill-opacity:1;stroke-width:1"
         d="m 33.552989,61.74765 c -3.051874,0.954772 0.609943,3.124053 2.333523,3.176951 0.962,0.02952 3.368833,2.125121 -0.347423,-2.339116 -0.473257,-0.431932 -1.38068,-0.584155 -1.9861,-0.837835 z m -91.128285,18.786451 c -5.87665,1.049451 -1.816833,8.423092 -5.867014,11.186419 -7.054866,5.386339 -15.581731,9.33467 -22.223558,14.66306 -2.18212,2.64912 -0.904881,4.17635 -0.0071,3.1329 1.234917,-0.59305 6.483733,-6.15734 17.797983,-10.598403 7.852824,-3.082385 9.248833,-3.613358 11.870787,-0.888335 3.78972,0.160899 5.019242,-4.402829 7.161247,-6.972821 1.902217,-0.875633 5.48114,-6.168874 1.254366,-4.268486 -4.702116,0.899317 -7.555169,-0.397573 -9.639914,-6.102667 l -0.346858,-0.151667 z"
         id="path3796"
         inkscape:connector-curvature="0"
         sodipodi:nodetypes="csccccccscccccc" />
      <path
         style="fill:#0e2965;fill-opacity:1;stroke-width:3.77952766"
         d="m -313.34177,552.02733 c -1.75241,0.52297 -2.08004,7.5504 -1.7617,8.50187 0.96626,2.64412 7.49661,3.45675 7.65225,1.6231 0.59136,-6.73052 3.70631,-7.44247 6.04679,-9.96476 -1.64178,-1.40644 -10.32322,-1.12825 -11.93734,-0.16021 z"
         transform="matrix(0.26458333,0,0,0.26458333,-4.7625,-78.845833)"
         id="path3794"
         inkscape:connector-curvature="0"
         sodipodi:nodetypes="ccccc" />
      <path
         style="fill:#0e2965;fill-opacity:1;stroke-width:1"
         d="m -41.292557,78.65161 c 0.390881,1.642689 0.356702,6.1394 -3.589541,7.359898 -0.542792,0.167875 -0.217081,1.032594 -0.510737,1.11784 5.009761,1.707697 8.509203,-1.992916 6.611276,-6.061156 -0.853537,-1.829571 -2.726948,-3.710354 -2.510998,-2.416582 z m 180.592907,4.528504 c -3.56343,2.287037 -4.88271,7.148948 -9.54054,6.784199 0.53249,2.269348 -3.46872,8.95026 2.09275,5.526371 3.7798,-1.594416 11.69187,-8.670001 11.88669,-10.953828 -1.03723,-0.377766 -3.40679,-0.965272 -4.4389,-1.356742 z M -7.1427551,83.911335 c -1.2143635,1.314399 -1.771089,1.592188 -4.2942569,1.632387 -0.551009,0.497562 1.142687,2.997059 2.9299908,4.828683 3.4931552,2.084874 8.73777821,5.217388 10.9053379,6.707561 C 2.24586,96.623082 3.7673764,94.85789 3.3179072,94.403004 1.9488562,93.017453 2.2840328,92.626184 2.3062345,91.852368 -2.4779421,89.776111 -4.2784139,87.041548 -6.7608404,83.860945 Z M 4.4203646,99.720708 c -1.2285848,4.804252 -1.4128888,10.786692 7.7061774,12.282982 1.06534,0.12357 6.661403,1.72782 9.469122,1.10244 0.201836,-0.045 1.421217,-0.0147 1.587637,-0.10581 -6.615508,-2.42427 -10.021129,-4.11805 -15.4677467,-9.12397 L 5.0361242,99.892168 Z M 127.33069,101.456 c -3.05906,5.55612 -9.99016,7.19427 -14.69626,10.83706 4.53261,-1.75987 10.6852,0.0509 14.87248,-3.59047 2.53769,-1.83541 1.27153,-3.70795 0.49041,-5.55574 -0.6315,-0.34344 -0.18223,-1.36062 -0.66663,-1.69085 z"
         id="path3792"
         inkscape:connector-curvature="0"
         sodipodi:nodetypes="cscsccccccccccscccccsccccccccc" />
      <path
         style="fill:#0e2965;fill-opacity:1;stroke-width:3.77952766"
         d="m -376.67969,657.07422 c -0.24122,-0.0103 -1.00362,0.0695 -1.66853,0.31972 -1.77101,0.58886 -2.04309,1.12339 -1.6674,5.84825 0.4382,-0.0155 1.36926,0.19369 2.58094,-1.69863 1.22543,-1.7628 0.71243,-3.24707 0.75499,-4.46934 z"
         transform="matrix(0.26458333,0,0,0.26458333,-4.7625,-78.845833)"
         id="path3784"
         inkscape:connector-curvature="0"
         sodipodi:nodetypes="ccccc" />
      <path
         style="fill:#0e2965;fill-opacity:1;stroke-width:3.77952766"
         d="m -379.20703,665.74023 c -1.76338,-0.14676 1.10296,6.14296 2.2163,6.71179 0.93139,-1.45446 1.22674,-4.88907 1.22674,-4.88907 -1.22067,-0.76891 -2.21832,-1.5458 -3.44304,-1.82272 z"
         transform="matrix(0.26458333,0,0,0.26458333,-4.7625,-78.845833)"
         id="path3782"
         inkscape:connector-curvature="0"
         sodipodi:nodetypes="cccc" />
      <path
         style="fill:#5772a9;stroke-width:1"
         d="m 182.88576,92.284946 c 0.0127,-0.308226 0.0754,-0.370919 0.15986,-0.159853 0.0764,0.190995 0.067,0.419198 -0.0209,0.507119 -0.0879,0.08792 -0.15047,-0.06835 -0.13899,-0.347266 z"
         id="path3691"
         inkscape:connector-curvature="0" />
      <path
         style="fill:#5a9039;stroke-width:1"
         d="m -53.538334,59.899183 c -1.051729,2.220794 -3.80987,4.92415 -5.108511,6.987891 1.868969,-0.171767 4.032103,-0.530705 5.38859,0.07989 2.748306,0.484576 8.131219,3.242487 9.730717,7.460583 1.569966,2.25452 1.17297,1.08505 2.155066,3.695078 1.613434,-0.105823 3.42715,4.760931 3.406248,5.681964 -0.77044,2.687886 -2.691,3.806081 -5.422939,3.664947 -2.532444,-0.192638 -2.195864,0.300007 -4.309253,2.942272 2.371482,-0.309541 1.992003,3.466082 1.595669,4.527983 0.991455,0.546573 0.978795,3.698477 -0.755127,5.169046 -1.544262,2.26197 -1.856833,-2.148491 -2.436217,1.9879 -1.298855,2.22927 -3.035458,4.83543 -5.392888,6.0886 -3.398054,1.94173 1.63782,-0.16862 2.93608,-0.49112 2.953263,-1.02105 5.521111,-1.60327 6.709889,-2.59855 1.530216,-1.28114 1.857559,-1.30903 3.259372,-2.22643 2.73929,-1.7927 0.230326,-3.038894 0.545085,-7.920906 0.131732,-2.043198 7.523121,-1.846432 5.232458,-9.535041 -1.911362,-5.446574 -2.548325,-3.550927 -3.254171,-8.017285 -2.45301,-4.552871 -5.557843,-8.302943 -8.60775,-12.468249 -1.598544,-1.939716 -3.286456,-4.047837 -5.672318,-5.028576 z M 3.624321,106.0579 c -0.6673223,-0.0232 -0.9502019,0.48948 -2.63412263,0.88787 0.93640283,0.8975 1.64392893,1.44108 1.89033203,2.15161 0.9182735,0.15889 4.3441522,2.16953 2.0241423,-0.0761 -0.3040557,-0.50668 -0.976296,-2.45665 -1.2803517,-2.96333 z"
         id="path3816"
         inkscape:connector-curvature="0"
         sodipodi:nodetypes="cccccccccccccssscccccccccc" />
      <path
         style="fill:#5a9039;stroke-width:1"
         d="m 88.387863,101.12403 c -1.516928,0.90736 -1.918218,1.26002 -7.318017,4.70954 -3.29637,0.0979 -7.544171,-1.36206 -9.363589,-2.04743 5.981433,6.59532 15.730998,5.92642 23.828611,5.45835 0.951163,-4.99942 -5.655278,-5.23551 -7.147005,-8.12046 z m -205.332143,0.34781 c 0.0677,1.20864 1.17394,2.32993 1.76093,2.53787 0.40286,0.14271 0.90907,-0.52438 0.52775,-0.7323 -0.98854,-0.53901 -1.66496,-1.30479 -2.28868,-1.80557 z m 159.854322,0.41651 c -3.119376,0.27397 -8.954375,5.03472 -6.363118,7.41942 7.931042,-0.55718 17.129998,0.30275 23.450995,-5.34395 -4.56251,2.91467 -9.332788,-1.53558 -14.309236,-1.57162 -0.864933,-0.40928 -1.836478,-0.48716 -2.778641,-0.50385 z m -148.526852,3.17035 c -5.32172,2.08107 11.753492,2.40998 4.06192,0.66674 -1.18286,-0.28293 -2.86782,-0.43488 -4.06192,-0.66674 z"
         id="path3812"
         inkscape:connector-curvature="0"
         sodipodi:nodetypes="ccccccssccccccccc" />
      <path
         style="fill:#771386;stroke-width:1"
         d="m 127.98811,109.51347 c 1.84498,-2.8259 0.73295,-3.17632 1.74505,-3.67691 4.6738,-2.31168 14.79638,-0.15105 18.90442,-5.842404 5.09503,-0.705652 8.94285,-9.40695 8.94285,-9.40695 4.19045,10.629264 -8.85781,14.325734 -16.65201,15.505374 -3.49901,0.69805 -11.19188,3.04251 -12.94031,3.42089 z M 1.1286707,108.5582 c -7.9971598,-2.99063 -17.7861267,-2.02908 -24.4451897,-7.90252 -2.783245,-1.446738 -1.84513,-9.731698 -1.23622,-8.913545 0.418689,0.562565 0.382354,0.924157 0.988695,2.959981 2.50601,4.586585 15.7676853,11.132214 22.1642937,11.592594 0.74802306,0.109 6.6882333,3.41146 2.528421,2.26349 z M 176.21249,104.61808 c -7.74422,-1.42098 -16.76974,-8.985318 -11.04774,-17.216112 2.37334,-3.989094 6.22194,-10.780247 8.544,-12.623615 -1.34425,5.157164 -4.41539,10.914871 3.11754,15.747263 1.73677,3.294178 -3.07665,11.808424 3.57344,14.982204 1.85566,1.23357 -3.87772,-0.84942 -4.18724,-0.88974 z m -219.327098,-0.90563 c 7.260896,-2.83195 -2.820264,-7.810063 5.116844,-10.951379 3.642146,-1.521746 3.265196,-6.007151 -0.05935,-11.849137 -0.551875,-0.96977 -0.771158,-1.691454 -1.04131,-2.976704 -0.245459,-1.167774 1.044723,1.5196 3.542326,4.489777 4.628489,5.65907 8.003611,16.908032 -1.095005,20.261583 -1.06837,0.0819 -12.417286,5.52348 -6.463505,1.02586 z M 183.78873,63.737906 c 0.95879,-0.39516 1.28973,-0.09522 1.23772,0.184018 -0.0443,0.238064 -0.21804,0.373315 -0.34275,0.559443 -0.18369,0.274144 -0.51191,0.552339 -0.81444,0.520754 -0.54325,-0.05672 -0.58558,-1.056059 -0.0805,-1.264215 z"
         id="path3501"
         inkscape:connector-curvature="0"
         sodipodi:nodetypes="csccccccscccccccccccssccccssssc" />
      <path
         style="fill:#922e4e;stroke-width:1"
         d="m -67.713674,112.5375 c -0.880535,-2.42474 7.744328,-9.53958 11.595554,-11.46397 2.385033,-1.191749 1.975144,1.61086 -0.429746,4.73959 -7.613901,6.57934 -8.643792,6.79956 -11.165808,6.72438 z m -48.138486,-10.39023 c -5.06163,-4.263355 -5.12869,-12.736747 -2.62059,-13.293935 0.76126,-0.169119 2.12255,0.49334 3.16122,1.523066 0.73964,0.733266 1.86012,1.959228 2.67459,3.406542 0.36698,1.089819 -2.192,7.517087 -1.16273,9.364687 -0.97594,0.0265 -1.44127,-0.32711 -2.05249,-1.00036 z M 24.484047,81.313479 c -0.523248,-5.026284 1.736317,-5.141523 2.549582,-3.61606 0.750457,1.407653 0.03448,2.921429 -0.239437,3.981802 -0.144396,0.558975 -1.188088,-0.242586 -2.310145,-0.365742 z m 57.84133,-0.189389 c -0.695642,-0.341006 -3.782556,-1.516004 -3.536552,-2.049246 1.190553,-2.580663 0.471334,-4.687948 2.656253,-7.161314 4.033424,-4.565907 10.345877,-7.91141 6.519283,-1.723274 -1.316649,2.866574 -5.913924,8.801879 -5.638984,10.933834 z M 50.580092,79.92097 c -1.520033,-1.905794 -1.586702,-7.484162 -6.004523,-8.685498 -2.043593,-3.053483 -2.534104,-4.670487 3.783322,-0.189273 0.514793,0.445923 4.652833,5.828894 3.960578,8.055974 -0.161473,0.519481 -1.049449,0.0087 -1.739377,0.818797 z M -104.15757,77.276961 c -9.23529,-7.024103 18.006184,-9.107392 8.556344,-3.397366 -2.247974,2.178052 -5.264394,4.443191 -8.556344,3.397366 z m 47.055908,-1.626015 c -4.888971,-5.829539 5.786238,-5.544811 9.143868,-4.242824 1.848284,0.716708 1.427155,1.589533 -3.06899,2.280317 -2.743948,0.568255 -4.082491,3.165772 -6.074878,1.962507 z m -40.408127,-7.914989 c -0.768259,-1.358584 -0.690297,-2.759941 -0.551439,-3.356375 0.169179,-0.726668 0.909696,-0.783185 2.559169,-0.554175 0.06174,2.853523 1.790307,2.039195 2.514688,2.604562 -2.710864,0.437838 -3.60008,1.122372 -4.522418,1.305988 z"
         id="path3499"
         inkscape:connector-curvature="0"
         sodipodi:nodetypes="cscccssccccssccsscccccscccccscccsccc" />
      <path
         style="fill:#067411;stroke-width:1"
         d="m 186.83363,107.93257 c -14.59935,-3.36797 -8.58155,-9.868961 -9.69525,-17.305149 -10.34685,-6.334942 -2.50964,-18.579637 3.82246,-25.615178 2.35993,-2.747335 8.56616,-7.796484 11.0526,-8.073802 -1.73024,3.568966 -1.6133,6.435538 4.5175,7.431341 9.51649,5.98645 13.39914,12.7217 12.37749,12.024288 -3.4067,-2.325507 -9.59716,-2.71136 -12.60698,-4.528146 -4.82275,-5.70339 -17.51453,-6.079911 -21.46172,4.600956 -1.0478,10.455696 4.86344,10.179556 9.26296,12.412639 -1.97364,1.52187 1.52718,4.256036 1.38167,6.230297 -0.61925,4.222066 0.67675,10.558894 4.99518,13.969224 l -1.31982,-0.34875 -2.32611,-0.79769 z m -2.10735,-43.418035 c 1.05438,-1.248711 -0.75147,-1.135119 -1.14155,-0.644644 -0.4818,0.605812 0.0872,1.893355 1.14155,0.644644 z M -49.018017,99.136661 c -0.396595,-0.92649 -1.333887,-1.288102 -1.382251,-1.521868 -0.569716,-2.753658 0.134852,-4.75644 1.52815,-6.256415 1.580715,-1.701739 3.577117,-1.395958 2.694863,3.610886 1.920296,1.668388 -1.414708,8.874316 -2.840762,4.167397 z M 228.89599,85.471795 c -8.12263,-2.085735 -10.68911,-9.374789 -5.44985,-13.62152 1.22238,0.855967 2.49534,1.060875 3.87412,2.51034 2.9986,3.152324 3.77099,10.881745 1.57573,11.11118 z M -91.24345,82.129848 c 0.406934,-4.183214 6.839632,-19.692681 4.367474,-7.14462 0.123976,1.219804 -2.376086,10.49313 -4.367474,7.14462 z m 16.315973,-4.419031 c -0.267804,-10.39207 14.312124,-11.665141 16.633204,-19.790321 6.903668,1.964852 4.755939,1.978687 0.0091,8.296859 -1.841075,1.382217 -3.705456,3.604052 -5.250809,7.178978 -3.377514,1.812042 -8.123102,2.722269 -11.391491,4.314484 z M 222.40803,67.630982 c -1.53523,-0.350795 -6.13335,-2.346396 -7.19265,-2.776252 -1.87195,-0.759628 -1.42276,-4.650758 0.0615,-6.594927 1.53558,-0.747493 6.27125,0.104498 8.84613,2.787603 2.17674,0.866938 -1.60828,5.686103 -1.71494,6.583576 z M -87.498371,66.371658 c -6.574987,-5.23209 1.532869,-9.571337 5.483172,-8.402013 0.798316,3.809997 1.574896,2.939052 1.823793,3.844287 0.198298,0.721209 -0.586913,1.608226 -1.387703,2.638925 -2.146708,-0.708289 -4.592753,3.672372 -5.919262,1.918801 z m 220.094161,0.332384 c 1.49038,-2.1997 -2.40183,-7.142157 -2.44242,-8.45982 -0.0249,-0.807645 2.27992,0.371738 5.56203,2.540295 2.55508,1.457988 4.76551,4.141045 3.94792,4.119123 -3.70809,-0.09943 -4.62091,0.970367 -7.06753,1.800402 z M -6.0476177,64.015845 c 1.7772382,-2.639973 5.40005961,-4.410426 7.3246519,-4.976517 2.0380151,-0.599453 -0.48629821,1.396925 1.5586431,4.322685 -1.88790835,-1.362397 -8.2439023,1.7082 -8.883295,0.653832 z"
         id="path3493"
         inkscape:connector-curvature="0"
         sodipodi:nodetypes="cccccscccccccczszcssccccscccccccccccsccccccscccscsccscc" />
    </g>
  </g>
</svg>
